<?xml version="1.0" standalone="no"?>
<!DOCTYPE svg PUBLIC "-//W3C//DTD SVG 20010904//EN" "http://www.w3.org/TR/2001/REC-SVG-20010904/DTD/svg10.dtd">
<!-- Created using Krita: https://krita.org -->
<svg xmlns="http://www.w3.org/2000/svg" 
    xmlns:xlink="http://www.w3.org/1999/xlink"
    xmlns:krita="http://krita.org/namespaces/svg/krita"
    xmlns:sodipodi="http://sodipodi.sourceforge.net/DTD/sodipodi-0.dtd"
    width="500.4pt"
    height="650.88pt"
    viewBox="0 0 500.4 650.88">
<defs/>
<path id="shape0" transform="matrix(0.84375 0 0 0.84375 202.896142214986 0.321013826979129)" fill="#000000" stroke-opacity="0" stroke="#000000" stroke-width="0" stroke-linecap="square" stroke-linejoin="bevel" d="M119.164 630.807C98.3604 616.293 80.5336 599.087 64.6037 579.909C61.647 576.349 59.7036 576.147 56.955 579.713C55.1289 582.083 52.914 584.15 51.0378 586.484C38.2379 602.413 20.5379 610.859 2.30012 618.489C1.7245 618.729 1.04136 618.713 0.0336403 618.878C-0.26293 616.255 1.46867 614.767 2.58323 613.105C39.4241 558.167 76.5326 503.398 112.055 447.596C150.053 387.906 183.393 325.688 210.875 260.412C212.947 255.49 214.733 250.469 215.953 245.276C217.214 239.91 214.801 237.556 209.456 239.142C205.317 240.37 201.282 242.005 197.293 243.676C160.577 259.053 122.992 272.267 86.5471 288.319C76.1688 292.89 66.0193 297.893 56.0524 303.289C54.4793 304.141 53.0397 305.386 50.9974 305.456C49.9471 303.405 51.5093 301.972 52.2684 300.487C73.8101 258.355 93.8235 215.48 114.512 172.933C142.75 114.859 175.329 59.2469 212.461 6.36001C214.035 4.11755 215.384 1.56529 217.97 0C219.457 2.18401 217.956 3.73989 217.338 5.27604C195.024 60.7495 172.663 116.203 148.759 171.02C143.702 182.618 139.208 194.462 135.572 206.603C130.831 222.433 136.279 228.407 152.405 224.274C167.393 220.431 182.138 215.646 197.047 211.482C219.479 205.216 241.817 198.515 265.026 195.543C268.962 195.039 272.881 194.526 277.642 195.782C264.389 228.034 250.267 259.527 234.895 291.086C240.59 293.127 245.725 294.931 250.835 296.804C277.944 306.744 303.343 319.76 325.306 338.788C336.946 348.873 346.43 360.589 350.647 375.767C354.917 391.134 351.992 405.495 343.673 418.813C332.85 436.14 316.898 447.81 299.604 457.86C279.626 469.47 258.317 478.018 236.224 484.604C231.808 485.92 230.542 487.539 231.71 492.309C237.393 515.514 240.385 539.102 239.746 563.024C239.201 583.447 236.683 603.583 227.735 622.303C214.821 649.317 191.337 659.82 162.395 651.909C146.754 647.633 132.762 640.05 119.164 630.807M148.831 502.369C137.408 503.402 125.992 504.512 114.559 505.408C111.988 505.61 110.326 506.485 108.839 508.622C99.6185 521.872 90.3252 535.073 80.9009 548.179C78.988 550.839 79.1719 552.646 81.2295 555.128C93.5822 570.028 106.744 584.147 121.695 596.461C136.279 608.474 151.676 619.267 170.28 624.274C184.604 628.129 194.606 623.555 201.415 610.474C206.494 600.716 208.776 590.081 210.045 579.391C213.332 551.685 210.135 524.327 204.278 497.197C203.639 494.24 202.321 493.396 199.387 494.032C182.972 497.59 166.394 500.192 148.831 502.369M224.909 458.555C245.723 452.439 265.997 445 284.855 434.091C296.878 427.136 308.291 419.422 316.905 408.245C326.114 396.297 326.519 384.649 317.796 372.421C312.246 364.643 305.233 358.24 297.595 352.516C276.541 336.737 252.687 326.742 227.983 318.362C223.419 316.814 221.637 318.025 219.602 321.978C210.463 339.732 201.038 357.341 191.61 374.945C190.555 376.916 190.357 378.452 191.4 380.489C203.642 404.395 213.09 429.44 221.543 454.886C222.046 456.402 222.027 458.316 224.909 458.555M194.733 464.713C189.067 445.593 181.75 427.121 173.037 407.688C159.684 431.069 145.849 452.565 131.21 474.94C134.485 474.94 136.148 475.12 137.761 474.912C150.947 473.208 164.216 472.061 177.268 469.431C183.072 468.261 189.213 468.47 194.733 464.713Z" sodipodi:nodetypes="ccccccccccccccccccccccccccccccccccccccccccccccccccccccccccccccccccc"/><path id="shape1" transform="matrix(0.84375 0 0 0.84375 0.530215039537465 91.6453708582291)" fill="#000000" stroke-opacity="0" stroke="#000000" stroke-width="0" stroke-linecap="square" stroke-linejoin="bevel" d="M129.203 618.841C119.751 633.475 110.921 648.094 99.8509 662.758C99.5396 657.762 101.424 654.762 102.671 651.697C119.257 610.955 138.136 571.24 156.599 531.335C170.58 501.118 185.523 471.284 195.747 439.475C198.848 429.827 201.301 419.959 203.731 410.113C205.405 403.328 202.898 400.38 195.86 400.315C185.647 400.221 176.251 403.923 166.847 407.163C140.404 416.271 114.092 425.755 87.6816 434.956C82.19 436.87 76.4986 438.211 70.8925 439.792C69.3056 440.239 67.6904 440.822 65.6119 439.387C76.6086 416.4 89.2321 394.171 101.053 371.08C92.79 367.386 84.8525 364.033 77.0843 360.325C57.1373 350.805 38.285 339.565 22.5242 323.815C12.2453 313.544 3.96197 301.979 1.06541 287.322C-1.64321 273.615 0.839521 260.83 8.20833 249.023C20.8295 228.802 39.7505 215.948 60.1889 204.93C77.2563 195.729 95.1716 188.51 113.748 183.061C118.57 181.647 119.067 179.461 118.001 175.24C111.195 148.289 108.436 120.864 109.21 93.114C109.704 75.3622 112.282 57.9329 120.31 41.8049C133.291 15.7269 156.286 5.57907 184.372 13.5157C212.567 21.4829 235.527 38.0114 256.215 58.0956C258.82 60.6245 260.815 63.782 263.561 66.2205C266.687 65.0887 267.486 63.0877 268.483 61.453C276.555 48.2187 285.258 35.4107 294.12 22.6959C301.563 12.0181 312.672 6.5052 323.295 0C324.802 2.34141 323.478 3.52193 322.859 4.73097C292.882 63.2964 263.028 121.925 232.828 180.375C204.768 234.683 176.03 288.643 149.752 343.854C146.174 351.37 142.873 359.019 139.515 366.638C138.782 368.301 138.136 370.06 137.827 371.841C136.614 378.832 139.463 381.597 146.457 379.959C160.746 376.614 174.437 371.313 188.376 366.826C215.789 358.003 243.464 349.994 270.637 340.421C272.01 339.937 273.382 339.153 275.501 340.19C270.588 349.978 266.406 360.063 262.616 370.3C235.572 443.345 197.876 510.864 155.97 576.214C146.979 590.235 138.246 604.422 129.203 618.841M190.652 46.3804C185.6 44.201 180.46 42.3332 175.046 41.1891C162.559 38.5503 152.756 43.0293 146.487 54.1499C141.799 62.4656 139.862 71.5876 138.84 80.8457C135.537 110.779 138.825 140.259 145.513 169.479C146.328 173.04 147.772 174.172 151.37 173.433C169.467 169.72 187.698 166.893 206.155 165.688C208.765 165.518 210.835 164.662 212.234 162.092C223.945 140.592 235.715 119.125 247.594 97.7182C249.241 94.7502 248.89 92.6401 246.75 90.1306C231.208 71.8989 213.132 56.9371 190.652 46.3804M118.168 337.392C128.823 317.607 139.416 297.786 150.2 278.071C151.911 274.942 151.805 272.459 150.388 269.252C145.478 258.145 140.738 246.952 136.321 235.641C132.889 226.855 130.035 217.843 126.84 208.69C124.793 209.202 123.187 209.54 121.618 210.006C104.331 215.142 87.686 221.863 71.8523 230.509C58.0476 238.047 44.8506 246.478 35.124 259.182C26.7096 270.171 26.3893 281.316 33.697 293.032C38.1647 300.194 44.2422 305.881 50.7285 311.146C67.3172 324.612 86.1713 334.067 105.797 342.155C113.873 345.483 113.852 345.534 118.168 337.392M188.106 206.323C189.628 202.765 192.311 199.723 193.296 195.193C180.103 196.593 167.619 198.805 154.691 201.883C158.64 215.208 163.007 227.771 168.787 241.152C175.517 229.039 181.645 218.009 188.106 206.323Z" sodipodi:nodetypes="ccccccccccccccccccccccccccccccccccccccccccccccccccccccccccccccccccc"/><path id="shape2" transform="matrix(0.84375 0 0 0.84375 212.477211514878 286.360219051941)" fill="#000000" stroke-opacity="0" stroke="#000000" stroke-width="0" stroke-linecap="square" stroke-linejoin="bevel" d="M15.0092 75.575C0.513931 62.0284 -3.74123 43.8074 3.37657 26.6784C10.3288 9.94792 26.3534 -0.373068 44.7819 0.0103236C67.2462 0.477671 86.5175 20.3568 86.3624 42.9024C86.2014 66.2903 67.3794 85.2142 44.3402 85.7206C33.2769 85.9638 23.773 82.6129 15.0092 75.575Z" sodipodi:nodetypes="cccccc"/>
</svg>
